<svg width="38" height="38" viewBox="0 0 38 38" fill="none" xmlns="http://www.w3.org/2000/svg">
<path d="M18.9998 3.16663C10.2598 3.16663 3.1665 10.26 3.1665 19C3.1665 27.74 10.2598 34.8333 18.9998 34.8333C27.7398 34.8333 34.8332 27.74 34.8332 19C34.8332 10.26 27.7398 3.16663 18.9998 3.16663ZM18.9998 7.91663C21.6282 7.91663 23.7498 10.0383 23.7498 12.6666C23.7498 15.295 21.6282 17.4166 18.9998 17.4166C16.3715 17.4166 14.2498 15.295 14.2498 12.6666C14.2498 10.0383 16.3715 7.91663 18.9998 7.91663ZM18.9998 30.4C15.0415 30.4 11.5423 28.3733 9.49984 25.3016C9.54734 22.1508 15.8332 20.425 18.9998 20.425C22.1507 20.425 28.4523 22.1508 28.4998 25.3016C26.4573 28.3733 22.9582 30.4 18.9998 30.4Z" fill="current"/>
</svg>
