<svg width="26" height="26" viewBox="0 0 26 26" fill="none" xmlns="http://www.w3.org/2000/svg">
<path d="M12.6667 12.6364C16.1658 12.6364 19 9.839 19 6.38528C19 2.93156 16.1658 0.134201 12.6667 0.134201C9.1675 0.134201 6.33333 2.93156 6.33333 6.38528C6.33333 9.839 9.1675 12.6364 12.6667 12.6364ZM12.6667 3.25974C14.4083 3.25974 15.8333 4.66623 15.8333 6.38528C15.8333 8.10433 14.4083 9.51082 12.6667 9.51082C10.925 9.51082 9.5 8.10433 9.5 6.38528C9.5 4.66623 10.925 3.25974 12.6667 3.25974ZM12.6667 14.1991C8.43916 14.1991 0 16.2932 0 20.4502V23.5758C0 24.4353 0.7125 25.1385 1.58333 25.1385H23.75C24.6208 25.1385 25.3333 24.4353 25.3333 23.5758V20.4502C25.3333 16.2932 16.8942 14.1991 12.6667 14.1991ZM22.1667 22.013H3.16667V20.4658C3.48333 19.3406 8.39166 17.3247 12.6667 17.3247C16.9417 17.3247 21.85 19.3406 22.1667 20.4502V22.013Z" fill="#CDCDCD"/>
</svg>
