<svg width="30" height="29" viewBox="0 0 30 29" fill="none" xmlns="http://www.w3.org/2000/svg">
<rect width="30" height="29" fill="#E5E5E5"/>
<g clip-path="url(#clip0_0_1)">
<rect width="428" height="2293" transform="translate(-190 -2229)" fill="white"/>
<rect x="-190" y="-12.013" width="428" height="75.013" fill="white"/>
<rect x="-190" y="-13" width="428" height="71.0649" fill="white"/>
<g clip-path="url(#clip1_0_1)">
<path d="M18.4358 0.571426H3.91667C2.175 0.571426 0.75 1.97792 0.75 3.69697V25.5758C0.75 27.2948 2.175 28.7013 3.91667 28.7013H26.0833C27.825 28.7013 29.25 27.2948 29.25 25.5758V11.2451C29.25 10.4169 28.9175 9.61987 28.3158 9.04164L20.6683 1.49346C20.0825 0.899608 19.275 0.571426 18.4358 0.571426ZM8.66667 19.3247H21.3333C22.2042 19.3247 22.9167 20.0279 22.9167 20.8874C22.9167 21.747 22.2042 22.4502 21.3333 22.4502H8.66667C7.79583 22.4502 7.08333 21.747 7.08333 20.8874C7.08333 20.0279 7.79583 19.3247 8.66667 19.3247ZM8.66667 13.0736H21.3333C22.2042 13.0736 22.9167 13.7768 22.9167 14.6364C22.9167 15.4959 22.2042 16.1991 21.3333 16.1991H8.66667C7.79583 16.1991 7.08333 15.4959 7.08333 14.6364C7.08333 13.7768 7.79583 13.0736 8.66667 13.0736ZM8.66667 6.82251H16.5833C17.4542 6.82251 18.1667 7.52575 18.1667 8.38528C18.1667 9.2448 17.4542 9.94805 16.5833 9.94805H8.66667C7.79583 9.94805 7.08333 9.2448 7.08333 8.38528C7.08333 7.52575 7.79583 6.82251 8.66667 6.82251Z" fill="#CDCDCD"/>
</g>
</g>
<defs>
<clipPath id="clip0_0_1">
<rect width="428" height="2293" fill="white" transform="translate(-190 -2229)"/>
</clipPath>
<clipPath id="clip1_0_1">
<rect width="38" height="37.5065" fill="white" transform="translate(-4 -4.11688)"/>
</clipPath>
</defs>
</svg>
