<svg width="38" height="38" viewBox="0 0 38 38" fill="none" xmlns="http://www.w3.org/2000/svg">
<g clip-path="url(#clip0_970_224)">
<path d="M22.4358 4.75H7.91667C6.175 4.75 4.75 6.175 4.75 7.91667V30.0833C4.75 31.825 6.175 33.25 7.91667 33.25H30.0833C31.825 33.25 33.25 31.825 33.25 30.0833V15.5642C33.25 14.725 32.9175 13.9175 32.3158 13.3317L24.6683 5.68417C24.0825 5.0825 23.275 4.75 22.4358 4.75ZM12.6667 23.75H25.3333C26.2042 23.75 26.9167 24.4625 26.9167 25.3333C26.9167 26.2042 26.2042 26.9167 25.3333 26.9167H12.6667C11.7958 26.9167 11.0833 26.2042 11.0833 25.3333C11.0833 24.4625 11.7958 23.75 12.6667 23.75ZM12.6667 17.4167H25.3333C26.2042 17.4167 26.9167 18.1292 26.9167 19C26.9167 19.8708 26.2042 20.5833 25.3333 20.5833H12.6667C11.7958 20.5833 11.0833 19.8708 11.0833 19C11.0833 18.1292 11.7958 17.4167 12.6667 17.4167ZM12.6667 11.0833H20.5833C21.4542 11.0833 22.1667 11.7958 22.1667 12.6667C22.1667 13.5375 21.4542 14.25 20.5833 14.25H12.6667C11.7958 14.25 11.0833 13.5375 11.0833 12.6667C11.0833 11.7958 11.7958 11.0833 12.6667 11.0833Z" fill="current"/>
</g>
<defs>
<clipPath id="clip0_970_224">
<rect width="38" height="38" fill="white"/>
</clipPath>
</defs>
</svg>
