<svg width="34" height="34" viewBox="0 0 34 34" fill="none" xmlns="http://www.w3.org/2000/svg">
<path d="M17.0003 11.3332C18.5587 11.3332 19.8337 10.0582 19.8337 8.49984C19.8337 6.9415 18.5587 5.6665 17.0003 5.6665C15.442 5.6665 14.167 6.9415 14.167 8.49984C14.167 10.0582 15.442 11.3332 17.0003 11.3332ZM17.0003 14.1665C15.442 14.1665 14.167 15.4415 14.167 16.9998C14.167 18.5582 15.442 19.8332 17.0003 19.8332C18.5587 19.8332 19.8337 18.5582 19.8337 16.9998C19.8337 15.4415 18.5587 14.1665 17.0003 14.1665ZM17.0003 22.6665C15.442 22.6665 14.167 23.9415 14.167 25.4998C14.167 27.0582 15.442 28.3332 17.0003 28.3332C18.5587 28.3332 19.8337 27.0582 19.8337 25.4998C19.8337 23.9415 18.5587 22.6665 17.0003 22.6665Z" fill="#C5C5C5"/>
</svg>
