<svg width="95" height="95" viewBox="0 0 95 95" fill="none" xmlns="http://www.w3.org/2000/svg">
<rect x="1" y="1" width="93" height="93" rx="14" fill="#E7E7E7" stroke="#A6A6A6" stroke-width="2" stroke-dasharray="8 8"/>
<path fill-rule="evenodd" clip-rule="evenodd" d="M48 35C46.8954 35 46 35.8954 46 37V45H37C35.8954 45 35 45.8954 35 47C35 48.1046 35.8954 49 37 49H46V58C46 59.1046 46.8954 60 48 60C49.1046 60 50 59.1046 50 58V49H58C59.1046 49 60 48.1046 60 47C60 45.8954 59.1046 45 58 45H50V37C50 35.8954 49.1046 35 48 35Z" fill="#A6A6A6"/>
</svg>
