<svg width="34" height="34" viewBox="0 0 34 34" fill="none" xmlns="http://www.w3.org/2000/svg">
<path d="M16.9998 11.3333C18.5582 11.3333 19.8332 10.0583 19.8332 8.49996C19.8332 6.94163 18.5582 5.66663 16.9998 5.66663C15.4415 5.66663 14.1665 6.94163 14.1665 8.49996C14.1665 10.0583 15.4415 11.3333 16.9998 11.3333ZM16.9998 14.1666C15.4415 14.1666 14.1665 15.4416 14.1665 17C14.1665 18.5583 15.4415 19.8333 16.9998 19.8333C18.5582 19.8333 19.8332 18.5583 19.8332 17C19.8332 15.4416 18.5582 14.1666 16.9998 14.1666ZM16.9998 22.6666C15.4415 22.6666 14.1665 23.9416 14.1665 25.5C14.1665 27.0583 15.4415 28.3333 16.9998 28.3333C18.5582 28.3333 19.8332 27.0583 19.8332 25.5C19.8332 23.9416 18.5582 22.6666 16.9998 22.6666Z" fill="#C5C5C5"/>
</svg>
