<svg height="28" >
<path
    d="M10.7218 7.40835C8.34183 10.08 6.7085 13.9183 6.55683 14.28L2.3335 12.4717L7.0585 7.74668C7.60683 7.19835 8.40016 6.95335 9.17016 7.10501L10.7218 7.40835ZM13.0318 19.8333C13.0318 19.8333 17.3952 18.025 19.9035 15.5167C26.2035 9.21668 25.1535 4.29335 24.8152 3.18501C23.7068 2.83501 18.7835 1.79668 12.4835 8.09668C9.97516 10.605 8.16683 14.9683 8.16683 14.9683L13.0318 19.8333ZM20.5918 17.2783C17.9202 19.6583 14.0818 21.2917 13.7202 21.4433L15.5285 25.6667L20.2535 20.9417C20.8018 20.3933 21.0468 19.6 20.8952 18.83L20.5918 17.2783ZM10.5002 21C10.5002 21.9683 10.1035 22.8433 9.4735 23.4733C8.09683 24.85 2.3335 25.6667 2.3335 25.6667C2.3335 25.6667 3.15016 19.9033 4.52683 18.5267C5.15683 17.8967 6.03183 17.5 7.00016 17.5C8.93683 17.5 10.5002 19.0633 10.5002 21ZM15.1668 10.5C15.1668 9.21668 16.2168 8.16668 17.5002 8.16668C18.7835 8.16668 19.8335 9.21668 19.8335 10.5C19.8335 11.7833 18.7835 12.8333 17.5002 12.8333C16.2168 12.8333 15.1668 11.7833 15.1668 10.5Z"
    fill="current"
/>
</svg>