<svg width="20" height="20" viewBox="0 0 20 20" fill="none" xmlns="http://www.w3.org/2000/svg">
<path d="M18.3335 3.33338L16.6668 3.33338C16.2085 3.33338 15.8335 3.70837 15.8335 4.16671L15.8335 11.6667C15.8335 12.125 16.2085 12.5 16.6668 12.5L18.3335 12.5L18.3335 3.33338ZM1.8085 9.26671C1.71683 9.47504 1.66683 9.70004 1.66683 9.93337L1.66683 10.8334C1.66683 11.75 2.41683 12.5 3.3335 12.5L7.91683 12.5L7.15016 16.375C7.1085 16.5584 7.1335 16.7584 7.21683 16.925C7.4085 17.3 7.65016 17.6417 7.95016 17.9417L8.3335 18.3334L13.6752 12.9917C13.9918 12.675 14.1668 12.25 14.1668 11.8084L14.1668 5.27504C14.1668 4.20837 13.2918 3.33338 12.2168 3.33338L5.4585 3.33337C4.87516 3.33337 4.32516 3.64171 4.02516 4.14171L1.8085 9.26671Z" fill="#C4C4C4"/>
</svg>
