<svg width="20" height="20" viewBox="0 0 20 20" fill="none" xmlns="http://www.w3.org/2000/svg">
<path d="M1.6665 16.6666H3.33317C3.7915 16.6666 4.1665 16.2916 4.1665 15.8333V8.33329C4.1665 7.87496 3.7915 7.49996 3.33317 7.49996H1.6665V16.6666ZM18.1915 10.7333C18.2832 10.525 18.3332 10.3 18.3332 10.0666V9.16663C18.3332 8.24996 17.5832 7.49996 16.6665 7.49996H12.0832L12.8498 3.62496C12.8915 3.44163 12.8665 3.24163 12.7832 3.07496C12.5915 2.69996 12.3498 2.35829 12.0498 2.05829L11.6665 1.66663L6.32484 7.00829C6.00817 7.32496 5.83317 7.74996 5.83317 8.19163V14.725C5.83317 15.7916 6.70817 16.6666 7.78317 16.6666H14.5415C15.1248 16.6666 15.6748 16.3583 15.9748 15.8583L18.1915 10.7333Z" fill="#f19121"/>
</svg>
