<svg width="715" height="729" viewBox="0 0 715 729" fill="none" xmlns="http://www.w3.org/2000/svg">
<path d="M446.659 563.08L427.128 566.622L451.924 703.337L471.455 699.795L446.659 563.08Z" fill="#1D1D1B"/>
<path d="M248.472 699.777L268.003 703.319L292.799 566.604L273.268 563.062L248.472 699.777Z" fill="#1D1D1B"/>
<path d="M699.653 195.554C683.41 163.078 625.648 180.424 573.081 205.125C522.752 22.8203 415.786 5 362.303 5C308.456 5 200.255 23.096 150.389 209.349C95.6384 182.519 32.1757 161.258 15.0281 195.554C-25.3101 276.142 65.1146 351.084 125.357 390C124.541 408.93 124.126 428.805 124.111 449.625C124.111 449.625 124.111 622.612 362.303 622.612C600.495 622.612 600.495 449.625 600.495 449.625C600.495 426.445 599.984 404.446 598.962 383.626C658.654 343.266 737.852 271.951 699.653 195.554Z" fill="white" stroke="#1D1D1B" stroke-width="9" stroke-miterlimit="10"/>
<path d="M444.766 143.945C452.988 143.945 459.653 137.28 459.653 129.058C459.653 120.837 452.988 114.171 444.766 114.171C436.544 114.171 429.879 120.837 429.879 129.058C429.879 137.28 436.544 143.945 444.766 143.945Z" fill="#1D1D1B"/>
<path d="M276.047 143.945C284.269 143.945 290.934 137.28 290.934 129.058C290.934 120.837 284.269 114.171 276.047 114.171C267.825 114.171 261.16 120.837 261.16 129.058C261.16 137.28 267.825 143.945 276.047 143.945Z" fill="#1D1D1B"/>
<path d="M362.303 282.891C362.303 282.891 501.248 282.891 501.248 227.312C501.248 171.734 362.303 171.734 362.303 171.734C362.303 171.734 223.357 171.734 223.357 227.312C223.357 282.891 362.303 282.891 362.303 282.891Z" fill="#F4A232" stroke="#1D1D1B" stroke-width="9" stroke-miterlimit="10"/>
<path d="M253.562 674.264L212.198 700.972C201.656 707.776 206.475 724.13 219.024 724.13H259.594C262.867 724.131 266.012 722.857 268.361 720.578C270.71 718.299 272.079 715.194 272.176 711.922L272.97 685.214C273.041 682.92 272.482 680.651 271.355 678.651C270.228 676.652 268.576 674.999 266.577 673.871C264.578 672.744 262.309 672.184 260.015 672.253C257.721 672.322 255.489 673.018 253.562 674.264Z" fill="#1D1D1B" stroke="#1D1D1B" stroke-width="9" stroke-miterlimit="10"/>
<path d="M471.044 674.264L512.408 700.972C522.95 707.776 518.131 724.13 505.582 724.13H465.012C461.739 724.131 458.595 722.857 456.245 720.578C453.896 718.299 452.528 715.194 452.43 711.922L451.636 685.214C451.566 682.92 452.125 680.651 453.252 678.651C454.379 676.652 456.031 674.999 458.03 673.871C460.029 672.744 462.298 672.184 464.592 672.253C466.886 672.322 469.117 673.018 471.044 674.264Z" fill="#1D1D1B" stroke="#1D1D1B" stroke-width="9" stroke-miterlimit="10"/>
<path d="M153.885 195.852C153.885 195.852 134.036 255.4 143.961 314.948" stroke="#1D1D1B" stroke-width="9" stroke-miterlimit="10"/>
<path d="M570.721 195.852C570.721 195.852 590.57 255.4 580.645 314.948" stroke="#1D1D1B" stroke-width="9" stroke-miterlimit="10"/>
</svg>
