<svg width="40" height="40" viewBox="0 0 40 40" fill="none" xmlns="http://www.w3.org/2000/svg">
<path d="M30.9167 13.25L33.0833 11.0833L31 9L28.8333 11.1667C26.4167 9.16667 23.3333 8 20 8C12.25 8 6 14.25 6 22C6 29.75 12.25 36 20 36C27.75 36 34 29.75 34 22C34 18.6667 32.8333 15.5833 30.9167 13.25ZM20 33C13.9167 33 9 28.0833 9 22C9 15.9167 13.9167 11 20 11C26.0833 11 31 15.9167 31 22C31 28.0833 26.0833 33 20 33Z" fill="black"/>
<path d="M25 3H15V6H25V3Z" fill="black"/>
<path d="M20 22L12.25 29.75C14.3333 31.8333 17.0833 33 20 33C26 33 31 28 31 22C31 16 26 11 20 11V22Z" fill="#F19121"/>
</svg>
