<svg width="22" height="24" viewBox="0 0 22 24" fill="none" xmlns="http://www.w3.org/2000/svg">
<path d="M10.4189 14.5161V5.8064H16.3962L10.4189 14.5161Z" fill="#F19121"/>
<path d="M13.6 22.0646L10.4189 14.5162L14.7929 6.96777C15.5882 7.21939 17.6559 8.77939 19.5646 13.0065C21.4732 17.2336 16.3835 20.8065 13.6 22.0646Z" fill="#F19121"/>
<path d="M14.1176 0H7.05882V2.28571H14.1176V0ZM18.8588 7.30286L20.5294 5.68C20.0235 5.09714 19.4706 4.54857 18.8706 4.06857L17.2 5.69143C15.3765 4.27429 13.0824 3.42857 10.5882 3.42857C4.74118 3.42857 0 8.03429 0 13.7143C0 19.3943 4.72941 24 10.5882 24C16.4471 24 21.1765 19.3943 21.1765 13.7143C21.1765 11.2914 20.3059 9.06286 18.8588 7.30286ZM10.5882 21.7143C6.03529 21.7143 2.35294 18.1371 2.35294 13.7143C2.35294 9.29143 6.03529 5.71429 10.5882 5.71429C15.1412 5.71429 18.8235 9.29143 18.8235 13.7143C18.8235 18.1371 15.1412 21.7143 10.5882 21.7143Z" fill="black"/>
</svg>
