<svg xmlns="http://www.w3.org/2000/svg" viewBox="0 0 898.25 898.25"><defs><style>.cls-1{fill:#2a2a2a;}.cls-2{fill:#3a3a3a;}.cls-3{fill:#4c4c4c;}.cls-4{fill:#5b5b5b;}.cls-5{fill:#6b6b6b;}.cls-6{fill:#7d7d7d;}.cls-7{fill:#8c8c8c;}.cls-8{fill:#9b9b9b;}.cls-9{fill:#acacac;}.cls-10{fill:#bbb;}.cls-11{fill:#cdcdcd;}.cls-12{fill:#ddd;}</style></defs><g id="Layer_2" data-name="Layer 2"><g id="Layer_1-2" data-name="Layer 1"><rect class="cls-1" x="409.68" width="78.89" height="229.79" rx="39.45"/><rect class="cls-2" x="242.56" y="44.78" width="78.89" height="229.79" rx="39.45" transform="translate(-42.05 162.4) rotate(-30)"/><rect class="cls-3" x="120.23" y="167.12" width="78.89" height="229.79" rx="39.45" transform="translate(-164.39 279.28) rotate(-60)"/><rect class="cls-4" x="75.45" y="334.23" width="78.89" height="229.79" rx="39.45" transform="translate(-334.23 564.02) rotate(-90)"/><rect class="cls-5" x="120.23" y="501.35" width="78.89" height="229.79" rx="39.45" transform="translate(-294.17 1062.64) rotate(-120)"/><rect class="cls-6" x="242.56" y="623.68" width="78.89" height="229.79" rx="39.45" transform="translate(156.95 1519.21) rotate(-150)"/><rect class="cls-7" x="409.68" y="668.46" width="78.89" height="229.79" rx="39.45" transform="translate(898.25 1566.71) rotate(-180)"/><rect class="cls-8" x="576.79" y="623.68" width="78.89" height="229.79" rx="39.45" transform="translate(1519.21 1070.09) rotate(150)"/><rect class="cls-9" x="699.13" y="501.35" width="78.89" height="229.79" rx="39.45" transform="translate(1641.55 284.73) rotate(120)"/><rect class="cls-10" x="743.91" y="334.23" width="78.89" height="229.79" rx="39.45" transform="translate(1232.48 -334.23) rotate(90)"/><rect class="cls-11" x="699.13" y="167.12" width="78.89" height="229.79" rx="39.45" transform="translate(613.52 -498.62) rotate(60)"/><rect class="cls-12" x="576.79" y="44.78" width="78.89" height="229.79" rx="39.45" transform="translate(162.4 -286.73) rotate(30)"/></g></g></svg>