<svg width="22" height="24" viewBox="0 0 22 24" fill="none" xmlns="http://www.w3.org/2000/svg">
<ellipse cx="10.5901" cy="13.7144" rx="9.17799" ry="8.22856" fill="#F19121"/>
<path d="M14.12 0H7.06V2.28571H14.12V0ZM18.862 7.30286L20.5328 5.68C20.0269 5.09714 19.4738 4.54857 18.8737 4.06857L17.2029 5.69143C15.379 4.27429 13.0845 3.42857 10.59 3.42857C4.74197 3.42857 0 8.03429 0 13.7143C0 19.3943 4.7302 24 10.59 24C16.4498 24 21.18 19.3943 21.18 13.7143C21.18 11.2914 20.3093 9.06286 18.862 7.30286ZM10.59 21.7143C6.0363 21.7143 2.35333 18.1371 2.35333 13.7143C2.35333 9.29143 6.0363 5.71429 10.59 5.71429C15.1437 5.71429 18.8267 9.29143 18.8267 13.7143C18.8267 18.1371 15.1437 21.7143 10.59 21.7143Z" fill="black"/>
</svg>
