<svg width="32" height="32" viewBox="0 0 32 32" fill="none" xmlns="http://www.w3.org/2000/svg">
<circle cx="16" cy="16" r="16" fill="white"/>
<path d="M16.0003 5.77783V1.77783L10.667 7.11117L16.0003 12.4445V8.4445C20.4137 8.4445 24.0003 12.0312 24.0003 16.4445C24.0003 20.4045 21.107 23.6845 17.3337 24.3245V27.0178C22.6003 26.3645 26.667 21.8845 26.667 16.4445C26.667 10.5512 21.8937 5.77783 16.0003 5.77783Z" fill="#FAEDE1"/>
<path d="M8.00016 16.4446C8.00016 14.2446 8.8935 12.2446 10.3468 10.7913L8.4535 8.89795C6.5335 10.8313 5.3335 13.4979 5.3335 16.4446C5.3335 21.8846 9.40016 26.3646 14.6668 27.0179V24.3246C10.8935 23.6846 8.00016 20.4046 8.00016 16.4446Z" fill="#FAEDE1"/>
</svg>
