<svg width="32" height="32" viewBox="0 0 32 32" fill="none" xmlns="http://www.w3.org/2000/svg">
<circle cx="16" cy="16" r="16" fill="#E1E1E1"/>
<path d="M15.9998 5.77783V1.77783L10.6665 7.11117L15.9998 12.4445V8.4445C20.4132 8.4445 23.9998 12.0312 23.9998 16.4445C23.9998 20.4045 21.1065 23.6845 17.3332 24.3245V27.0178C22.5998 26.3645 26.6665 21.8845 26.6665 16.4445C26.6665 10.5512 21.8932 5.77783 15.9998 5.77783Z" fill="white"/>
<path d="M7.99992 16.4445C7.99992 14.2445 8.89325 12.2445 10.3466 10.7912L8.45325 8.89783C6.53325 10.8312 5.33325 13.4978 5.33325 16.4445C5.33325 21.8845 9.39992 26.3645 14.6666 27.0178V24.3245C10.8933 23.6845 7.99992 20.4045 7.99992 16.4445Z" fill="white"/>
</svg>
