<svg width="40" height="40" viewBox="0 0 40 40" fill="none" xmlns="http://www.w3.org/2000/svg">
<path d="M25 3H15V6H25V3Z" fill="white"/>
<path fill-rule="evenodd" clip-rule="evenodd" d="M33.0833 11.0833L30.9167 13.25C32.8333 15.5833 34 18.6667 34 22C34 29.75 27.75 36 20 36C12.25 36 6 29.75 6 22C6 14.25 12.25 8 20 8C23.3333 8 26.4167 9.16667 28.8333 11.1667L31 9L33.0833 11.0833ZM9 22C9 28.0833 13.9167 33 20 33C23.0417 33 25.7917 31.7708 27.7812 29.7812L20 22L20 11C13.9167 11 9 15.9167 9 22Z" fill="white"/>
</svg>
