<svg width="115" height="130" viewBox="0 0 115 130" fill="none" xmlns="http://www.w3.org/2000/svg">
<path d="M17.4157 0H58.9983V90H17.4157C16.5098 90 15.641 89.6401 15.0004 88.9996C14.3599 88.359 14 87.4902 14 86.5843V3.41569C14 2.50979 14.3599 1.641 15.0004 1.00043C15.641 0.359866 16.5098 0 17.4157 0V0Z" fill="white"/>
<path d="M58.9983 89.9966C83.8502 89.9966 103.997 69.8502 103.997 44.9983C103.997 20.1464 83.8502 0 58.9983 0C34.1464 0 14 20.1464 14 44.9983C14 69.8502 34.1464 89.9966 58.9983 89.9966Z" fill="white"/>
<path d="M36.5027 16.5764H62.4619C68.4119 16.5764 74.1181 18.94 78.3254 23.1473C82.5326 27.3545 84.8962 33.0607 84.8962 39.0107V50.2107C84.8993 53.1698 84.3193 56.1004 83.1892 58.8352C82.0591 61.5699 80.4011 64.0551 78.31 66.1487C76.2189 68.2424 73.7357 69.9034 71.0023 71.0368C68.269 72.1702 65.339 72.7538 62.38 72.7543H36.5027C35.4932 72.7543 34.4936 72.5552 33.5611 72.1685C32.6286 71.7817 31.7816 71.2149 31.0684 70.5005C30.3552 69.786 29.7899 68.9379 29.4048 68.0047C29.0197 67.0716 28.8224 66.0716 28.8242 65.0621V24.2515C28.8251 22.2156 29.6345 20.2634 31.0744 18.8242C32.5143 17.3849 34.4668 16.5764 36.5027 16.5764Z" fill="#F19121"/>
<path d="M54.1789 78.0452L59.0019 69.6938H49.356L54.1789 78.0452Z" fill="#F19121"/>
<path d="M42.1213 48.4892C43.9512 48.4892 45.4345 47.0059 45.4345 45.176C45.4345 43.3462 43.9512 41.8628 42.1213 41.8628C40.2915 41.8628 38.8081 43.3462 38.8081 45.176C38.8081 47.0059 40.2915 48.4892 42.1213 48.4892Z" fill="white"/>
<path d="M55.2034 48.4892C57.0332 48.4892 58.5166 47.0059 58.5166 45.176C58.5166 43.3462 57.0332 41.8628 55.2034 41.8628C53.3735 41.8628 51.8901 43.3462 51.8901 45.176C51.8901 47.0059 53.3735 48.4892 55.2034 48.4892Z" fill="white"/>
<path d="M68.282 48.4892C70.1118 48.4892 71.5952 47.0059 71.5952 45.176C71.5952 43.3462 70.1118 41.8628 68.282 41.8628C66.4521 41.8628 64.9688 43.3462 64.9688 45.176C64.9688 47.0059 66.4521 48.4892 68.282 48.4892Z" fill="white"/>
<path d="M15.6533 120.678C15.261 122.974 14.2319 125.302 12.1484 126.814C9.97251 128.415 7.04213 128.87 4.29173 128.99C3.38493 129.05 2.38814 129.08 1.51134 128.87C1.17907 128.81 0.906801 128.717 0.694522 128.537C0.512239 128.417 0.392255 128.205 0.302267 127.993C0.182284 127.781 0.119984 127.571 0.0599916 127.328C0.0299956 127.116 0 126.936 0 126.784V109.529C0 109.257 -3.85086e-07 109.015 0.0599916 108.775C0.0899875 108.502 0.14998 108.26 0.242275 108.08C0.332263 107.838 0.424559 107.688 0.574539 107.566C0.816814 107.353 1.05909 107.263 1.26906 107.203C1.51134 107.143 1.78361 107.263 2.08587 107.113L7.13212 107.233C12.4506 107.353 15.5633 112.28 15.8956 116.571C15.9855 117.898 15.8633 119.347 15.6533 120.678ZM10.1825 113.364C9.0957 111.58 6.43529 111.248 4.07714 111.218C4.10714 112.367 4.10714 113.424 4.10714 114.633C4.07714 116.084 4.07714 117.473 4.07714 118.742V124.908C6.55527 124.848 8.76113 124.606 10.2725 122.31C11.8138 119.862 11.6638 115.782 10.1825 113.364Z" fill="white"/>
<path d="M35.5062 127.386C35.5062 127.628 35.4462 127.838 35.2939 128.05C35.1739 128.233 34.9616 128.443 34.6893 128.565C34.1748 128.867 33.6626 128.957 33.088 128.867C32.8457 128.807 32.5735 128.685 32.3335 128.475C32.2735 128.415 32.2135 128.385 32.1835 128.323C32.1535 128.293 32.0935 128.203 32.0335 128.17C31.8513 127.988 31.7313 127.778 31.6113 127.596C31.5213 127.414 31.429 127.234 31.309 127.021C31.219 126.871 31.1267 126.719 31.0967 126.569C31.0368 126.417 30.9768 126.237 30.9468 126.085L30.3122 124.603C27.5618 124.603 24.7514 124.633 22.001 124.603L21.3665 126.085C21.3065 126.235 21.2765 126.417 21.2165 126.569C21.1565 126.719 21.0966 126.871 21.0043 127.021C20.8843 127.234 20.792 127.414 20.672 127.596C20.582 127.778 20.4597 127.988 20.2797 128.17C20.2197 128.2 20.1598 128.29 20.1298 128.323C20.0998 128.383 20.0398 128.413 19.9798 128.475C19.7375 128.687 19.4652 128.807 19.2253 128.867C18.6507 128.957 18.1385 128.867 17.6239 128.565C17.3517 128.445 17.1394 128.233 17.0194 128.05C16.8694 127.838 16.8071 127.628 16.8071 127.386C16.8071 127.114 16.8371 126.901 16.8671 126.661C16.8971 126.479 16.9571 126.269 17.0171 126.117C17.0771 125.935 17.1071 125.875 17.1071 125.845L23.3924 110.374L23.5747 109.889C23.6647 109.647 23.787 109.467 23.877 109.194C23.9669 108.952 24.0592 108.742 24.2092 108.5C24.3292 108.258 24.5115 108.048 24.6615 107.865C24.8114 107.683 24.9937 107.563 25.176 107.473C25.7505 107.261 26.5651 107.261 27.1396 107.473C27.3219 107.563 27.5018 107.685 27.6541 107.865C27.8064 108.045 27.9564 108.258 28.1064 108.5C28.2564 108.742 28.3487 108.952 28.4386 109.194C28.5286 109.467 28.6509 109.647 28.7409 109.889L28.9232 110.374L35.2085 125.845C35.2085 125.875 35.2385 125.935 35.2985 126.117C35.3585 126.269 35.4185 126.479 35.4485 126.661C35.4762 126.904 35.5062 127.114 35.5062 127.386ZM28.284 119.257C27.7695 118.108 27.2273 116.839 26.6227 115.54C26.4728 115.178 26.2905 114.785 26.1382 114.421C26.0182 114.783 25.8359 115.175 25.6859 115.54C25.0814 116.839 24.5369 118.108 24.0246 119.257L23.4801 120.586H28.8286L28.284 119.257Z" fill="white"/>
<path d="M51.8817 127.326C51.8817 127.628 51.7317 127.931 51.5494 128.173C51.3371 128.445 51.0972 128.595 50.7626 128.717C50.3103 128.87 49.8558 128.96 49.4035 128.96C48.9513 128.99 48.4667 128.99 47.9822 129.05H47.8622C46.2909 129.08 44.7196 129.08 43.0582 129.05C41.4869 128.99 38.7065 129.472 38.072 127.751C38.012 127.568 37.952 127.358 37.952 127.176C37.802 125.817 37.892 124.486 37.892 123.187L37.952 118.805V114.755C37.952 113.304 37.982 112.307 38.012 110.948V110.798C38.042 110.406 38.072 109.981 38.072 109.589C38.102 109.167 38.192 108.772 38.4042 108.41C38.5242 108.108 38.7365 107.866 39.0388 107.686C39.311 107.503 39.6433 107.413 39.9756 107.413C40.2478 107.413 40.5201 107.443 40.7624 107.473C41.0047 107.503 41.2146 107.656 41.4569 107.836C41.5769 107.956 41.6992 108.138 41.7892 108.35C41.8492 108.532 41.9092 108.772 41.9392 109.015C41.9692 109.287 42.0291 109.529 42.0291 109.769C41.9692 110.011 41.9692 110.254 41.9692 110.464V111.008L41.8492 125.242L47.8322 125.302H49.2536C49.4958 125.302 49.7981 125.332 50.0704 125.362C50.3726 125.392 50.6149 125.452 50.8572 125.515C51.0995 125.577 51.2794 125.697 51.4017 125.817C51.644 126.029 51.764 126.209 51.824 126.422C51.8817 126.632 51.8817 127.084 51.8817 127.326Z" fill="white"/>
<path d="M68.8936 127.446C68.8036 127.748 68.6513 127.991 68.3791 128.171C68.1368 128.353 67.9568 128.503 67.7146 128.593C67.4723 128.713 67.23 128.745 66.9277 128.713C66.6855 128.713 66.5055 128.623 66.2932 128.501C66.0809 128.381 65.841 128.228 65.6587 128.078C65.4164 127.866 65.2064 127.716 65.0541 127.534C64.8719 127.321 64.6919 127.111 64.5396 126.959L64.1773 126.567L58.3743 120.494L58.4643 126.567V126.839C58.4643 126.989 58.4043 127.201 58.3743 127.384C58.3143 127.626 58.2543 127.836 58.162 128.078C58.102 128.321 57.9197 128.471 57.7697 128.623C57.5575 128.805 57.2852 128.925 56.9852 128.955C56.3807 129.137 55.8984 129.075 55.3839 128.835C55.1716 128.715 54.9916 128.503 54.8394 128.231C54.8094 128.171 54.7794 128.111 54.7494 128.078C54.7494 128.018 54.7194 127.958 54.6894 127.866C54.5694 127.654 54.5071 127.444 54.5071 127.261C54.4771 127.019 54.4471 126.839 54.4171 126.597C54.3871 126.445 54.3871 126.265 54.3871 126.112C54.4171 125.93 54.4171 125.78 54.4171 125.598L54.3871 123.21L54.3571 118.768C54.3571 117.469 54.3271 116.078 54.2671 114.599C54.2371 113.147 54.2371 112.15 54.2671 110.761V110.641C54.3271 110.219 54.3271 109.765 54.3571 109.372C54.3571 108.95 54.4471 108.556 54.6294 108.163C54.7494 107.861 54.9616 107.619 55.2639 107.439C55.5662 107.259 55.8685 107.196 56.2307 107.136C56.503 107.136 56.7753 107.196 57.0175 107.226C57.2598 107.256 57.5021 107.346 57.742 107.559C57.862 107.679 57.9843 107.831 58.0443 108.073C58.1643 108.256 58.2266 108.496 58.2566 108.768C58.2866 109.01 58.3166 109.252 58.3166 109.522V110.761L58.3466 114.449C58.9811 113.874 59.6156 113.27 60.2202 112.605C61.3069 111.486 62.366 110.399 63.4528 109.372L63.5428 109.282C63.8751 108.98 64.2073 108.648 64.5396 108.376C64.8119 108.073 65.2041 107.801 65.6587 107.651C65.9609 107.469 66.2932 107.409 66.6555 107.439C67.0177 107.469 67.32 107.621 67.5923 107.801C67.8045 107.983 68.0145 108.133 68.1368 108.316C68.3191 108.466 68.4091 108.708 68.4391 108.95C68.4391 109.162 68.4091 109.342 68.3191 109.555C68.1991 109.737 68.0768 109.977 67.9268 110.159C67.7445 110.401 67.5946 110.611 67.3823 110.794C67.23 111.006 67.02 111.156 66.8677 111.338L66.4755 111.73L60.8247 117.501C62.0638 118.74 63.5451 120.252 64.2396 120.976C65.3264 122.095 66.3255 123.212 67.2923 124.331L67.3823 124.421C67.6846 124.753 67.9868 125.086 68.2291 125.418C68.5314 125.75 68.7436 126.112 68.8636 126.537C69.0159 126.842 69.0459 127.114 68.8936 127.446Z" fill="white"/>
<path d="M72.3091 125.512L72.3391 123.124L72.3691 118.682C72.3991 117.413 72.3991 116.022 72.3991 114.573C72.3991 113.124 72.3991 112.125 72.4591 110.736V110.616C72.4891 110.224 72.5191 109.769 72.5191 109.347C72.5491 108.955 72.6691 108.56 72.8514 108.168C73.0013 107.865 73.1836 107.653 73.4859 107.443C73.7882 107.293 74.1204 107.201 74.4227 107.201C74.7249 107.201 74.9972 107.231 75.2395 107.261C75.4818 107.291 75.724 107.411 75.934 107.623C76.084 107.743 76.1763 107.895 76.2663 108.108C76.3263 108.35 76.4186 108.56 76.4486 108.802C76.4786 109.075 76.5086 109.317 76.5086 109.557C76.5086 109.829 76.4786 110.041 76.4786 110.281V110.796L76.2963 126.479V126.781C76.2963 126.901 76.2663 127.084 76.2363 127.326C76.1763 127.538 76.1163 127.748 76.024 127.99C75.904 128.203 75.7817 128.383 75.5718 128.535C75.3895 128.717 75.1195 128.807 74.7849 128.867C74.2404 128.987 73.6982 128.927 73.2436 128.715C73.0313 128.565 72.8514 128.383 72.7291 128.11C72.6691 128.05 72.6391 127.99 72.6391 127.928C72.6091 127.868 72.5491 127.808 72.5191 127.746C72.4591 127.534 72.3991 127.324 72.3991 127.081C72.3691 126.899 72.3391 126.689 72.3091 126.477C72.2791 126.295 72.2791 126.145 72.3091 125.962V125.512Z" fill="white"/>
<path d="M95.4864 128.443C94.5196 129.23 92.9483 128.715 92.3137 127.868C90.9547 126.207 89.8656 124.333 88.6865 122.55L86.1484 118.713C85.4539 117.626 84.6971 116.174 83.8826 114.995L83.7926 126.539V126.812C83.7926 127.446 83.5803 128.111 83.0681 128.565C82.8858 128.715 82.6158 128.837 82.2812 128.897C80.2877 129.26 79.6831 127.476 79.8031 126.057V125.542L79.8631 123.184L79.8931 118.803C79.9231 117.534 79.9231 116.174 79.9231 114.753C79.8931 113.03 79.9531 110.946 80.0431 109.282C80.0731 108.86 80.1631 108.466 80.3753 108.103C80.4653 107.801 80.7076 107.559 81.0099 107.379C81.4621 107.106 82.2789 107.016 82.7935 107.136C83.0058 107.196 83.1857 107.319 83.398 107.439C83.5803 107.589 83.7903 107.771 83.9426 107.953C84.1548 108.166 84.3048 108.406 84.4571 108.588C84.5771 108.83 84.6994 109.01 84.8494 109.222L85.1816 109.707L92.1615 120.706V118.713C92.1615 117.444 92.1315 116.085 92.1015 114.633C92.1015 112.942 92.1015 110.886 92.1915 109.195C92.1915 108.802 92.3114 108.408 92.4937 108.016C92.886 106.989 94.6396 106.657 95.5164 107.411C95.6364 107.531 95.7887 107.713 95.8487 107.896C95.9386 108.138 95.9986 108.348 96.0309 108.59C96.0909 108.862 96.1209 109.075 96.1209 109.345C96.1209 114.361 96.1509 119.739 96.1809 124.756C96.1809 125.33 96.2409 125.842 96.2109 126.417C96.1809 127.084 96.1209 127.961 95.4864 128.443Z" fill="white"/>
<path d="M111.832 128.111C110.593 128.898 108.387 129.198 106.876 129.138C99.6236 128.895 98.2946 121.915 98.6569 116.777C98.8991 113.694 100.318 109.313 103.733 107.983C106.846 106.714 111.68 107.197 113.553 110.039C114.188 111.066 114.64 112.73 114.4 114.089C114.038 116.477 111.407 115.78 110.895 114.089C110.623 113.152 110.291 112.335 109.444 111.823C107.48 110.614 105.062 111.611 103.913 113.424C102.584 115.418 102.432 118.321 102.886 120.646C103.099 121.583 103.431 122.52 103.913 123.427C104.638 124.696 106.571 125.483 108.113 125.088C110.288 124.544 110.771 123.125 110.771 121.431V121.401C110.256 121.401 109.804 121.371 109.622 121.371C109.169 121.371 108.715 121.281 108.322 121.129C107.96 121.009 107.688 120.826 107.506 120.554C107.293 120.312 107.203 120.04 107.203 119.737C107.203 119.495 107.233 119.285 107.263 119.043C107.323 118.86 107.476 118.651 107.656 118.438C107.776 118.348 107.988 118.256 108.23 118.196C108.472 118.136 108.715 118.046 109.017 118.014C109.259 117.984 109.562 117.984 109.834 117.984H112.584C113.036 117.954 113.703 118.104 114.036 118.376C114.156 118.528 114.308 118.678 114.368 118.89C114.428 119.073 114.488 119.313 114.52 119.555C114.552 119.797 114.58 120.07 114.58 120.28V121.519C114.552 123.911 114.31 126.539 111.832 128.111Z" fill="white"/>
</svg>
