<svg width="90" height="90" viewBox="0 0 90 90" fill="none" xmlns="http://www.w3.org/2000/svg">
<path d="M3.41569 0H44.9983V90H3.41569C2.50979 90 1.641 89.6401 1.00043 88.9996C0.359866 88.359 0 87.4902 0 86.5843L0 3.41569C0 2.50979 0.359866 1.641 1.00043 1.00043C1.641 0.359866 2.50979 0 3.41569 0V0Z" fill="#F19121"/>
<path d="M44.9983 89.9966C69.8502 89.9966 89.9966 69.8502 89.9966 44.9983C89.9966 20.1464 69.8502 0 44.9983 0C20.1464 0 0 20.1464 0 44.9983C0 69.8502 20.1464 89.9966 44.9983 89.9966Z" fill="#F19121"/>
<path d="M22.5025 16.5764H48.4617C54.4116 16.5764 60.1179 18.94 64.3251 23.1473C68.5323 27.3545 70.896 33.0607 70.896 39.0107V50.2107C70.8991 53.1698 70.319 56.1004 69.1889 58.8352C68.0588 61.5699 66.4009 64.0551 64.3098 66.1487C62.2187 68.2424 59.7355 69.9034 57.0021 71.0368C54.2687 72.1702 51.3388 72.7538 48.3797 72.7543H22.5025C21.493 72.7543 20.4934 72.5552 19.5609 72.1685C18.6284 71.7817 17.7813 71.2149 17.0681 70.5005C16.3549 69.786 15.7896 68.9379 15.4045 68.0047C15.0195 67.0716 14.8222 66.0716 14.824 65.0621V24.2515C14.8249 22.2156 15.6343 20.2634 17.0742 18.8242C18.5141 17.3849 20.4666 16.5764 22.5025 16.5764Z" fill="white"/>
<path d="M40.1787 78.0452L45.0016 69.6938H35.3557L40.1787 78.0452Z" fill="white"/>
<path d="M28.1213 48.4892C29.9512 48.4892 31.4345 47.0059 31.4345 45.176C31.4345 43.3462 29.9512 41.8628 28.1213 41.8628C26.2915 41.8628 24.8081 43.3462 24.8081 45.176C24.8081 47.0059 26.2915 48.4892 28.1213 48.4892Z" fill="#333333"/>
<path d="M41.2034 48.4892C43.0332 48.4892 44.5166 47.0059 44.5166 45.176C44.5166 43.3462 43.0332 41.8628 41.2034 41.8628C39.3735 41.8628 37.8901 43.3462 37.8901 45.176C37.8901 47.0059 39.3735 48.4892 41.2034 48.4892Z" fill="#333333"/>
<path d="M54.2822 48.4892C56.1121 48.4892 57.5954 47.0059 57.5954 45.176C57.5954 43.3462 56.1121 41.8628 54.2822 41.8628C52.4524 41.8628 50.969 43.3462 50.969 45.176C50.969 47.0059 52.4524 48.4892 54.2822 48.4892Z" fill="#333333"/>
</svg>
