<svg width="44" height="39" viewBox="0 0 44 39" fill="none" xmlns="http://www.w3.org/2000/svg">
<path d="M34.0493 16.9217L31.0154 13.8667L38.6755 6.175L41.7095 9.23C41.4728 9.295 34.0493 16.9217 34.0493 16.9217ZM24.1514 0H19.8479V10.8333H24.1514V0ZM9.95001 16.9217L12.9839 13.8667L5.34532 6.15333L2.28987 9.23C2.52656 9.295 9.95001 16.9217 9.95001 16.9217ZM39.2135 23.8333H31.8546C30.1977 27.6467 26.3892 30.3333 21.9997 30.3333C17.6101 30.3333 13.8016 27.6467 12.1448 23.8333H4.78587V34.6667H39.2135V23.8333ZM39.2135 19.5C41.5804 19.5 43.5169 21.45 43.5169 23.8333V34.6667C43.5169 37.05 41.5804 39 39.2135 39H4.78587C2.41897 39 0.482422 37.05 0.482422 34.6667V23.8333C0.482422 21.45 2.41897 19.5 4.78587 19.5H15.5445C15.5445 23.0967 18.4278 26 21.9997 26C25.5715 26 28.4548 23.0967 28.4548 19.5H39.2135Z" fill="#F19121"/>
</svg>
