<svg width="123" height="68" viewBox="0 0 123 68" fill="none" xmlns="http://www.w3.org/2000/svg">
<path fill-rule="evenodd" clip-rule="evenodd" d="M122.676 0H1.00011V36.5925H0.799805L1.00011 36.6939V37.0244H1.65247L61.8546 67.5151L122.057 37.0244H122.676V36.7107L122.909 36.5925H122.676V0Z" fill="#F19121"/>
<path d="M32.3245 18.042V34.494H34.1245V18.042H32.3245ZM29.8405 24.576V26.106H32.8105V24.576H29.8405ZM28.6165 18.366V33.684H30.3805V18.366H28.6165ZM20.8585 19.95V29.454H22.7485V19.95H20.8585ZM20.8585 28.716V30.336H21.9385C23.6665 30.336 25.5565 30.264 27.7525 29.85L27.5545 28.212C25.4485 28.626 23.5945 28.716 21.9385 28.716H20.8585ZM51.2201 18.042V27.726H53.1101V18.042H51.2201ZM52.3901 22.092V23.658H55.3601V22.092H52.3901ZM42.2741 28.41V29.688H51.2561V30.714H42.3101V33.468H44.1641V31.902H53.1101V28.41H42.2741ZM42.3101 33.054V34.35H53.7041V33.054H42.3101ZM44.2721 24.72V26.916H46.1621V24.72H44.2721ZM40.2941 27.456C43.1561 27.456 47.0081 27.438 50.5001 26.826L50.3561 25.656C46.9901 26.106 43.0121 26.124 40.0961 26.124L40.2941 27.456ZM40.5101 19.194V20.49H49.9061V19.194H40.5101ZM45.2081 20.904C42.8141 20.904 41.3021 21.714 41.3021 23.064C41.3021 24.432 42.8141 25.242 45.2081 25.242C47.5841 25.242 49.1141 24.432 49.1141 23.064C49.1141 21.714 47.5841 20.904 45.2081 20.904ZM45.2081 22.11C46.5221 22.11 47.3321 22.452 47.3321 23.064C47.3321 23.676 46.5221 24.036 45.2081 24.036C43.8941 24.036 43.0841 23.676 43.0841 23.064C43.0841 22.452 43.8941 22.11 45.2081 22.11ZM44.2721 17.898V19.896H46.1621V17.898H44.2721ZM56.5487 25.98V27.492H71.4167V25.98H56.5487ZM63.0467 23.424V26.592H64.9187V23.424H63.0467ZM58.3847 22.83V24.324H69.7067V22.83H58.3847ZM58.3847 18.78V23.748H60.2567V20.274H69.5987V18.78H58.3847ZM63.9467 28.518C60.4187 28.518 58.2767 29.598 58.2767 31.506C58.2767 33.414 60.4187 34.494 63.9467 34.494C67.4747 34.494 69.6167 33.414 69.6167 31.506C69.6167 29.598 67.4747 28.518 63.9467 28.518ZM63.9467 29.958C66.3587 29.958 67.7087 30.498 67.7087 31.506C67.7087 32.514 66.3587 33.036 63.9467 33.036C61.5347 33.036 60.1847 32.514 60.1847 31.506C60.1847 30.498 61.5347 29.958 63.9467 29.958ZM88.8363 18.042V34.494H90.6363V18.042H88.8363ZM86.3523 24.576V26.106H89.3223V24.576H86.3523ZM85.1283 18.366V33.684H86.8923V18.366H85.1283ZM77.3703 19.95V29.454H79.2603V19.95H77.3703ZM77.3703 28.716V30.336H78.4503C80.1783 30.336 82.0683 30.264 84.2643 29.85L84.0663 28.212C81.9603 28.626 80.1063 28.716 78.4503 28.716H77.3703ZM100.339 20.364V21.894H105.289V20.364H100.339ZM100.339 24V25.53H105.289V24H100.339ZM95.4969 28.59V30.102H104.695V34.494H106.585V28.59H95.4969ZM104.695 18.042V27.762H106.585V18.042H104.695ZM97.4589 18.924C95.0109 18.924 93.1749 20.598 93.1749 22.938C93.1749 25.296 95.0109 26.952 97.4589 26.952C99.8889 26.952 101.743 25.296 101.743 22.938C101.743 20.598 99.8889 18.924 97.4589 18.924ZM97.4589 20.544C98.8809 20.544 99.9429 21.498 99.9429 22.938C99.9429 24.396 98.8809 25.35 97.4589 25.35C96.0369 25.35 94.9749 24.396 94.9749 22.938C94.9749 21.498 96.0369 20.544 97.4589 20.544Z" fill="white"/>
</svg>
