<svg width="18" height="18" viewBox="0 0 18 18" fill="none" xmlns="http://www.w3.org/2000/svg">
<g clip-path="url(#clip0_1392_1613)">
<path d="M15.3641 15.3639C18.8788 11.8492 18.8788 6.15079 15.3641 2.6361C11.8495 -0.878581 6.15104 -0.878581 2.63635 2.6361C-0.878327 6.15079 -0.878327 11.8492 2.63635 15.3639C6.15104 18.8786 11.8495 18.8786 15.3641 15.3639Z" fill="#F4E09C"/>
<path d="M14.9384 14.9383C18.2181 11.6587 18.2181 6.34133 14.9384 3.0617C11.6588 -0.217929 6.34146 -0.217929 3.06183 3.0617C-0.217798 6.34133 -0.217798 11.6587 3.06183 14.9383C6.34146 18.2179 11.6588 18.2179 14.9384 14.9383Z" fill="#FBCC34"/>
<path d="M12.579 7.18733L16.1203 10.0505C16.1786 9.65297 16.2061 9.24558 16.1963 8.83036C16.1029 4.8559 12.8051 1.70987 8.83068 1.8033C4.85621 1.89672 1.71019 5.19481 1.80379 9.16909C1.89722 13.1436 5.19494 16.2896 9.16941 16.1962C9.50049 16.1883 9.8252 16.1565 10.1435 16.1055L5.42113 10.5184C5.42113 10.5184 9.58481 11.5863 12.579 7.18733Z" fill="#F7931E"/>
<path d="M15.9721 10.7896L15.5605 11.9664C15.731 11.5903 15.8678 11.1962 15.9721 10.7896Z" fill="#F7931E"/>
<path d="M15.5601 11.9664L15.9717 10.7895C16.0336 10.5477 16.0833 10.3013 16.1201 10.0507L12.5787 7.1875C11.4327 8.95801 8.99981 9.66116 8.99981 9.66116L5.4209 7.1875V10.876L10.1433 16.1056C12.5707 15.7181 14.5831 14.1233 15.5603 11.9665L15.5601 11.9664Z" fill="#F7931E"/>
<path d="M11.7466 7.20722V7.54832C11.7466 8.71896 10.8063 9.67761 9.61731 9.67761H7.63554V12.9222H6.25293V5.07812H9.61731C10.8063 5.07812 11.7466 6.03678 11.7466 7.20741V7.20722ZM7.63554 6.45145V8.3041H9.38694C10.0415 8.3041 10.3363 7.95389 10.3363 7.38242C10.3363 6.81094 10.0322 6.45145 9.38694 6.45145H7.63554Z" fill="#F15A24"/>
</g>
<defs>
<clipPath id="clip0_1392_1613">
<rect width="18" height="18" fill="white"/>
</clipPath>
</defs>
</svg>
