<svg width="39" height="35" viewBox="0 0 39 35" fill="none" xmlns="http://www.w3.org/2000/svg">
<path d="M38.8071 11.4521L36.7654 2.95466C36.3376 1.20461 34.8209 -0.000976562 33.0514 -0.000976562H6.04235C4.2923 -0.000976562 2.75615 1.22406 2.34781 2.95466L0.306089 11.4521C-0.16059 13.4355 0.267199 15.4578 1.51168 17.0522C1.66724 17.2661 1.88113 17.4217 2.05613 17.6161V31.1109C2.05613 33.2499 3.80618 34.9999 5.94512 34.9999H33.1681C35.307 34.9999 37.057 33.2499 37.057 31.1109V17.6161C37.232 17.4411 37.4459 17.2661 37.6015 17.0717C38.846 15.4772 39.2932 13.4355 38.8071 11.4521ZM32.993 3.86857L35.0348 12.366C35.2292 13.1827 35.0542 13.9994 34.5486 14.6411C34.2764 14.9911 33.6931 15.555 32.7208 15.555C31.5347 15.555 30.5041 14.6022 30.368 13.3383L29.2402 3.88801L32.993 3.86857ZM21.5011 3.88801H25.3123L26.3623 12.6771C26.4595 13.4355 26.2262 14.1938 25.7206 14.7577C25.2928 15.2633 24.6706 15.555 23.8734 15.555C22.5706 15.555 21.5011 14.4077 21.5011 13.0077V3.88801ZM12.7314 12.6771L13.8009 3.88801H17.6121V13.0077C17.6121 14.4077 16.5426 15.555 15.1037 15.555C14.4426 15.555 13.8398 15.2633 13.3731 14.7577C12.887 14.1938 12.6536 13.4355 12.7314 12.6771ZM4.07841 12.366L6.04235 3.88801H9.873L8.7452 13.3383C8.58964 14.6022 7.5785 15.555 6.39236 15.555C5.43956 15.555 4.83676 14.9911 4.58398 14.6411C4.05896 14.0188 3.88396 13.1827 4.07841 12.366ZM5.94512 31.1109V19.3856C6.10068 19.4051 6.2368 19.444 6.39236 19.444C8.08407 19.444 9.62022 18.744 10.748 17.5967C11.9147 18.7634 13.4703 19.444 15.2398 19.444C16.9315 19.444 18.4482 18.744 19.576 17.6356C20.7233 18.744 22.2789 19.444 24.0289 19.444C25.6623 19.444 27.2179 18.7634 28.3846 17.5967C29.5124 18.744 31.0486 19.444 32.7403 19.444C32.8958 19.444 33.0319 19.4051 33.1875 19.3856V31.1109H5.94512Z" fill="#F19121"/>
</svg>
