<svg width="14" height="14" viewBox="0 0 14 14" fill="current" xmlns="http://www.w3.org/2000/svg">
<path d="M6.99984 1.75C4.95817 1.75 2.9165 5.4425 2.9165 8.16667C2.9165 10.4242 4.74234 12.25 6.99984 12.25C9.25734 12.25 11.0832 10.4242 11.0832 8.16667C11.0832 5.4425 9.0415 1.75 6.99984 1.75ZM7.58317 10.5C5.83317 10.5 4.6665 9.33917 4.6665 7.58333C4.6665 7.2625 4.929 7 5.24984 7C5.57067 7 5.83317 7.2625 5.83317 7.58333C5.83317 9.28667 7.24484 9.33333 7.58317 9.33333C7.904 9.33333 8.1665 9.59583 8.1665 9.91667C8.1665 10.2375 7.904 10.5 7.58317 10.5Z" fill="current"/>
</svg>
