<svg width="14" height="14" viewBox="0 0 14 14" fill="current" xmlns="http://www.w3.org/2000/svg">
<path d="M1.1665 11.6666H2.33317C2.654 11.6666 2.9165 11.4041 2.9165 11.0833V5.83329C2.9165 5.51246 2.654 5.24996 2.33317 5.24996H1.1665V11.6666ZM12.734 7.51329C12.7982 7.36746 12.8332 7.20996 12.8332 7.04663V6.41663C12.8332 5.77496 12.3082 5.24996 11.6665 5.24996H8.45817L8.99484 2.53746C9.024 2.40913 9.0065 2.26913 8.94817 2.15246C8.814 1.88996 8.64484 1.65079 8.43484 1.44079L8.1665 1.16663L4.42734 4.90579C4.20567 5.12746 4.08317 5.42496 4.08317 5.73413V10.3075C4.08317 11.0541 4.69567 11.6666 5.44817 11.6666H10.179C10.5873 11.6666 10.9723 11.4508 11.1823 11.1008L12.734 7.51329Z" fill="current"/>
</svg>
